<svg width="276" height="40" viewBox="0 0 276 40" fill="none" xmlns="http://www.w3.org/2000/svg">
<path d="M2.99696 5.99067C4.65013 5.99091 5.99067 7.33113 5.99067 8.98438V28.4744C5.99067 31.1021 2.38744 31.9567 2.38715 34.5844C2.38715 35.3871 2.70605 36.1587 3.27365 36.7263C3.84125 37.2939 4.61182 37.6128 5.4145 37.6128C8.04174 37.6122 8.89609 34.0095 11.5234 34.0093H31.0135C32.6667 34.0093 34.0069 35.3498 34.0072 37.003V37.0063C34.0072 38.6597 32.6668 40 31.0135 40H6.28689C2.81489 40 0 37.1852 0 33.7131V8.98438C0 8.1904 0.315448 7.42881 0.876736 6.8674C1.43816 6.30597 2.19978 5.99067 2.99371 5.99067H2.99696Z" fill="#303A41"/>
<path d="M33.7131 0C37.1851 0 40 2.8147 40 6.28689V31.0156C40 31.8095 39.6846 32.5712 39.1233 33.1326C38.5618 33.694 37.8002 34.0093 37.0063 34.0093H37.003C35.3499 34.0091 34.0093 32.6689 34.0093 31.0156V11.5256C34.0093 8.89793 37.6126 8.04326 37.6128 5.41558C37.6128 4.61288 37.2939 3.84126 36.7263 3.27365C36.1587 2.70592 35.3882 2.38715 34.5855 2.38715C31.9583 2.38798 31.1039 5.99051 28.4766 5.99067H8.98655C7.33331 5.99067 5.99306 4.65017 5.99284 2.99696V2.99371C5.99284 1.34031 7.33317 0 8.98655 0H33.7131Z" fill="#303A41"/>
<path d="M65.7878 26.8804H80.3841V30H62.2222V10H65.7878V26.8804Z" fill="#303A41"/>
<path d="M106.433 13.1196H90.6109V18.1337H104.845V21.2533H90.6109V26.8804H106.433V30H87.1018V10H106.433V13.1196Z" fill="#303A41"/>
<path d="M130.218 24.847V10H133.645V30H130.525L116.876 14.4846V30H113.449V10H117.127L130.218 24.847Z" fill="#303A41"/>
<path fill-rule="evenodd" clip-rule="evenodd" d="M151.76 10C158.64 10.0002 163.04 13.8998 163.04 20C163.04 26.1002 158.64 29.9998 151.76 30H141.62V10H151.76ZM145.13 26.9358H151.76C156.523 26.9356 159.392 24.206 159.392 20C159.392 15.766 156.523 13.0643 151.732 13.0642H145.13V26.9358Z" fill="#303A41"/>
<path d="M176.137 26.4062L181.513 10H185.385L190.734 26.4062L196.36 10H200.064L192.934 30H188.644L183.435 13.8444L178.171 30H173.88L166.777 10H170.51L176.137 26.4062Z" fill="#303A41"/>
<path d="M225.291 13.1196H209.469V18.1337H223.703V21.2533H209.469V26.8804H225.291V30H205.959V10H225.291V13.1196Z" fill="#303A41"/>
<path d="M235.872 26.8804H250.469V30H232.307V10H235.872V26.8804Z" fill="#303A41"/>
<path d="M260.752 26.8804H275.348V30H257.186V10H260.752V26.8804Z" fill="#303A41"/>
</svg>
